Coordinates
version=1
nRows=13
nColumns=63
inDegrees=yes

Units are S.I. units (second, meters, Newtons, ...)
If the header above contains a line with 'inDegrees', this indicates whether rotational values are in degrees (yes) or radians (no).

endheader
time	pelvis_tilt	pelvis_list	pelvis_rotation	pelvis_tx	pelvis_ty	pelvis_tz	hip_flexion_r	hip_adduction_r	hip_rotation_r	knee_angle_r	knee_angle_r_beta	ankle_angle_r	subtalar_angle_r	mtp_angle_r	hip_flexion_l	hip_adduction_l	hip_rotation_l	knee_angle_l	knee_angle_l_beta	ankle_angle_l	subtalar_angle_l	mtp_angle_l	L5_S1_Flex_Ext	L5_S1_Lat_Bending	L5_S1_axial_rotation	L4_L5_Flex_Ext	L4_L5_Lat_Bending	L4_L5_axial_rotation	L3_L4_Flex_Ext	L3_L4_Lat_Bending	L3_L4_axial_rotation	L2_L3_Flex_Ext	L2_L3_Lat_Bending	L2_L3_axial_rotation	L1_L2_Flex_Ext	L1_L2_Lat_Bending	L1_L2_axial_rotation	L1_T12_Flex_Ext	L1_T12_Lat_Bending	L1_T12_axial_rotation	Abs_r3	Abs_r2	Abs_r1	Abs_t1	Abs_t2	neck_flexion	neck_bending	neck_rotation	arm_flex_r	arm_add_r	arm_rot_r	elbow_flex_r	pro_sup_r	wrist_flex_r	wrist_dev_r	arm_flex_l	arm_add_l	arm_rot_l	elbow_flex_l	pro_sup_l	wrist_flex_l	wrist_dev_l
0.000000	0.478118	-2.697172	102.388642	0.058838	0.849435	0.641236	9.066988	1.885475	-5.380948	7.535496	0.131519	24.516769	-7.008802	0.000000	8.899340	0.015035	-1.381559	5.139091	0.089694	30.713233	5.430198	0.000000	0.552224	0.315113	-1.379309	1.025535	0.419101	-1.465516	0.907249	0.766166	-1.465516	0.631137	0.766166	-1.206895	0.512795	0.642579	-1.120688	0.315541	0.488110	-1.034482	3.944482	3.564625	-7.671301	0.000000	0.000000	28.151457	7.825876	16.242551	24.878813	-12.570459	81.383662	45.705486	68.004530	3.851505	-1.195822	15.785702	-10.739274	58.485729	44.873197	83.054433	8.099922	0.164755
0.016949	0.290227	-2.690711	102.538582	0.058373	0.849335	0.640711	9.848049	1.464761	-6.353520	9.961538	0.173862	25.449617	-6.704790	0.000000	8.821069	0.271621	-1.105854	5.109776	0.089182	30.886044	5.236725	0.000000	0.555703	0.282472	-1.351242	1.031996	0.375687	-1.435695	0.912965	0.686801	-1.435695	0.635113	0.686801	-1.182337	0.516026	0.576016	-1.097884	0.317529	0.437548	-1.013432	3.969333	3.195375	-7.515204	0.000000	0.000000	28.159313	7.138058	14.326986	25.298193	-12.749227	82.617181	45.980423	69.128867	4.054246	-1.176630	15.835234	-10.858029	58.735456	45.439958	83.289767	8.421280	1.246897
0.033898	0.114063	-2.679139	102.583682	0.058112	0.849253	0.640241	10.480340	1.106345	-7.071751	11.940953	0.208409	26.276420	-6.322493	0.000000	8.722164	0.494175	-0.880562	5.057466	0.088269	30.995881	4.988427	0.000000	0.555820	0.254336	-1.322662	1.032214	0.338267	-1.405328	0.913157	0.618392	-1.405328	0.635247	0.618392	-1.157329	0.516135	0.518642	-1.074663	0.317596	0.393966	-0.991996	3.970169	2.877099	-7.356249	0.000000	0.000000	28.164628	6.607505	12.861022	25.672373	-12.871025	83.742464	46.206511	70.431513	4.122344	-1.209462	15.839207	-10.976390	58.875680	45.926920	83.417542	8.790555	2.218042
0.050847	-0.050041	-2.662449	102.537941	0.058030	0.849190	0.639822	10.974994	0.805513	-7.566445	13.509881	0.235792	27.004103	-5.868133	0.000000	8.605279	0.684785	-0.703261	4.985179	0.087008	31.050584	4.696904	0.000000	0.552957	0.230458	-1.294213	1.026897	0.306509	-1.375101	0.908454	0.560336	-1.375101	0.631975	0.560336	-1.132436	0.513476	0.469950	-1.051548	0.315960	0.356980	-0.970659	3.949720	2.606988	-7.198022	0.000000	0.000000	28.167600	6.218407	11.801915	26.004176	-12.941806	84.764814	46.387718	71.875390	4.072856	-1.287418	15.805210	-11.093225	58.921372	46.339181	83.453612	9.201057	3.082808
0.067797	-0.201752	-2.640631	102.415361	0.058101	0.849145	0.639447	11.343144	0.557553	-7.868405	14.704459	0.256641	27.639591	-5.347932	0.000000	8.473071	0.845540	-0.571530	4.895936	0.085450	31.057992	4.373755	0.000000	0.547496	0.210590	-1.266539	1.016756	0.280084	-1.345698	0.899482	0.512028	-1.345698	0.625734	0.512028	-1.108222	0.508405	0.429435	-1.029063	0.312839	0.326204	-0.949904	3.910712	2.382234	-7.044110	0.000000	0.000000	28.168432	5.954956	11.106920	26.296427	-12.967524	85.689535	46.528007	73.423424	3.922842	-1.403597	15.740834	-11.207402	58.887504	46.681838	83.413832	9.646095	3.845818
0.084746	-0.340739	-2.613676	102.229942	0.058299	0.849120	0.639111	11.595921	0.357751	-8.008436	15.560824	0.271588	28.189809	-4.768112	0.000000	8.328194	0.978532	-0.482946	4.792757	0.083649	31.025945	4.030578	0.000000	0.539819	0.194483	-1.240286	1.002498	0.258662	-1.317804	0.886869	0.472865	-1.317804	0.616959	0.472865	-1.085250	0.501276	0.396589	-1.007732	0.308453	0.301254	-0.930214	3.855874	2.200026	-6.898098	0.000000	0.000000	28.167321	5.801342	10.733292	26.551948	-12.954131	86.521930	46.631346	75.038535	3.689361	-1.551097	15.653668	-11.317792	58.789047	46.959989	83.314056	10.118979	4.511689
0.101695	-0.466668	-2.581575	101.995685	0.058600	0.849114	0.638810	11.744460	0.201394	-8.017342	16.115114	0.281262	28.661682	-4.134895	0.000000	8.173306	1.085849	-0.435089	4.678661	0.081658	30.962283	3.678974	0.000000	0.530307	0.181888	-1.216098	0.984834	0.241911	-1.292104	0.871242	0.442243	-1.292104	0.606088	0.442243	-1.064086	0.492443	0.370907	-0.988080	0.303018	0.281745	-0.912074	3.787932	2.057557	-6.763574	0.000000	0.000000	28.164469	5.741757	10.638288	26.773562	-12.907581	87.267303	46.701701	76.683649	3.389472	-1.723019	15.551301	-11.423264	58.640972	47.178731	83.170138	10.613018	5.085043
0.118644	-0.579207	-2.544320	101.726590	0.058979	0.849130	0.638536	11.799891	0.083768	-7.925926	16.403468	0.286295	29.062135	-3.454501	0.000000	8.011060	1.169582	-0.425537	4.556668	0.079529	30.874844	3.330541	0.000000	0.519343	0.172559	-1.194621	0.964472	0.229503	-1.269285	0.853229	0.419559	-1.269285	0.593557	0.419559	-1.045293	0.482262	0.351881	-0.970629	0.296753	0.267293	-0.895966	3.709616	1.952016	-6.644123	0.000000	0.000000	28.160075	5.760392	10.779164	26.964093	-12.833826	87.930956	46.743037	78.321687	3.040234	-1.912461	15.441324	-11.522685	58.458251	47.343160	82.997933	11.121521	5.570500
0.135593	-0.678024	-2.501901	101.436658	0.059408	0.849166	0.638286	11.773348	0.000161	-7.764993	16.462022	0.287316	29.398094	-2.733154	0.000000	7.844113	1.231819	-0.451868	4.429799	0.077315	30.771468	2.996877	0.000000	0.507308	0.166245	-1.176498	0.942122	0.221106	-1.250030	0.833457	0.404208	-1.250030	0.579802	0.404208	-1.029436	0.471086	0.339007	-0.955905	0.289876	0.257513	-0.882374	3.623651	1.880596	-6.543331	0.000000	0.000000	28.154339	5.841438	11.113174	27.126365	-12.738821	88.518194	46.759320	79.915574	2.658705	-2.112523	15.331326	-11.614927	58.255856	47.458376	82.813295	11.637797	5.972679
0.152542	-0.762786	-2.454309	101.139889	0.059864	0.849225	0.638053	11.675963	-0.054141	-7.565347	16.326915	0.284958	29.676483	-1.977075	0.000000	7.675121	1.274651	-0.511661	4.301072	0.075068	30.659995	2.689582	0.000000	0.494584	0.162699	-1.162376	0.918493	0.216390	-1.235024	0.812553	0.395587	-1.235024	0.565261	0.395587	-1.017079	0.459271	0.331777	-0.944430	0.282606	0.252021	-0.871782	3.532767	1.840488	-6.464785	0.000000	0.000000	28.147462	5.969087	11.597575	27.263200	-12.628517	89.034320	46.754516	81.428233	2.261945	-2.316303	15.228896	-11.698857	58.048757	47.529475	82.632078	12.155156	6.296201
0.169492	-0.833161	-2.401535	100.850284	0.060321	0.849306	0.637832	11.518869	-0.083850	-7.357791	16.034284	0.279851	29.904227	-1.192486	0.000000	7.506740	1.300168	-0.602495	4.173508	0.072841	30.548264	2.420256	0.000000	0.481554	0.161673	-1.152898	0.894294	0.215026	-1.224954	0.791145	0.393093	-1.224954	0.550368	0.393093	-1.008786	0.447171	0.329684	-0.936729	0.275160	0.250432	-0.864673	3.439691	1.828881	-6.412071	0.000000	0.000000	28.139642	6.127529	12.189621	27.377421	-12.508867	89.484636	46.732591	82.822586	1.867013	-2.516901	15.141625	-11.773346	57.851926	47.561554	82.470137	12.666906	6.545686
0.186441	-0.903370	-2.343131	100.621976	0.060671	0.849421	0.637592	11.310631	-0.125612	-7.273081	15.700104	0.274019	30.017802	-0.429944	0.000000	7.337636	1.336145	-0.640359	4.021569	0.070190	30.463481	2.207492	0.000000	0.469200	0.160224	-1.148545	0.871352	0.213098	-1.220329	0.770849	0.389569	-1.220329	0.536249	0.389569	-1.004977	0.435699	0.326729	-0.933193	0.268101	0.248187	-0.861409	3.351451	1.812487	-6.387865	0.000000	0.000000	28.130614	6.199038	12.623350	27.428403	-12.411987	89.816383	46.719019	84.413196	1.398035	-2.768383	15.156461	-11.852782	57.938629	47.517690	82.369638	13.179609	6.566076
0.203390	-0.940410	-2.286876	100.426620	0.060973	0.849558	0.637341	11.094246	-0.132222	-7.224337	15.274858	0.266597	30.167867	0.362845	0.000000	7.191210	1.339636	-0.760483	3.896715	0.068011	30.409885	2.075963	0.000000	0.459847	0.162999	-1.151045	0.853981	0.216789	-1.222986	0.755482	0.396317	-1.222986	0.525559	0.396317	-1.007165	0.427014	0.332389	-0.935224	0.262756	0.252486	-0.863284	3.284639	1.843883	-6.401769	0.000000	0.000000	28.122572	6.301040	13.122275	27.472515	-12.310235	90.057888	46.676683	85.587159	1.131193	-2.944712	15.200509	-11.891363	57.954132	47.454315	82.475605	13.670343	6.605405
